<svg xmlns="http://www.w3.org/2000/svg" xmlns:xlink="http://www.w3.org/1999/xlink" width="400" zoomAndPan="magnify" viewBox="0 0 300 149.999998" height="200" preserveAspectRatio="xMidYMid meet" version="1.0"><defs><g/></defs><g fill="#ff66c4" fill-opacity="1"><g transform="translate(112.286652, 88.087389)"><g><path d="M 17.515625 -26.496094 L 14.078125 -25.96875 C 8.007812 -25.039062 1.457031 -24.027344 0.6875 -18.40625 C 0.648438 -18.203125 0.648438 -17.960938 0.648438 -17.757812 C 0.605469 -16.464844 0.929688 -15.210938 1.660156 -14.277344 C 2.386719 -13.265625 3.480469 -12.578125 4.894531 -12.378906 C 5.054688 -12.335938 5.257812 -12.335938 5.460938 -12.335938 C 5.945312 -12.335938 6.351562 -12.699219 6.351562 -13.144531 C 6.390625 -13.632812 6.027344 -14.035156 5.542969 -14.035156 L 5.136719 -14.078125 C 4.207031 -14.199219 3.519531 -14.644531 3.035156 -15.289062 C 2.546875 -15.9375 2.304688 -16.785156 2.347656 -17.675781 C 2.347656 -17.839844 2.347656 -18 2.386719 -18.160156 C 2.992188 -22.53125 8.9375 -23.460938 14.359375 -24.308594 C 15.167969 -24.429688 16.019531 -24.554688 16.828125 -24.714844 C 15.976562 -22.410156 15.167969 -19.820312 14.480469 -17.554688 C 12.945312 -12.578125 12.335938 -10.800781 11.570312 -8.816406 C 11.082031 -7.644531 10.558594 -6.511719 9.949219 -5.5 C 8.089844 -7.078125 6.1875 -8.128906 4.449219 -8.128906 C 2.101562 -8.128906 0.160156 -6.511719 0 -3.679688 C 0 -1.292969 1.414062 0 4.207031 0.203125 C 6.351562 0.203125 8.496094 -0.847656 9.910156 -2.507812 C 10.03125 -2.628906 10.152344 -2.792969 10.273438 -2.953125 C 11.285156 -2.0625 12.296875 -1.011719 13.347656 0 C 16.867188 3.519531 20.871094 7.683594 25.160156 7.683594 C 27.585938 7.683594 30.257812 6.675781 31.265625 4.410156 C 31.308594 4.289062 31.347656 4.167969 31.347656 4.085938 C 31.347656 3.761719 31.066406 3.195312 30.5 3.195312 C 30.175781 3.195312 29.851562 3.398438 29.730469 3.722656 C 29.082031 5.136719 27.222656 5.945312 25.199219 5.945312 C 21.519531 5.945312 17.917969 2.144531 14.5625 -1.214844 C 13.429688 -2.304688 12.335938 -3.398438 11.246094 -4.410156 C 11.972656 -5.542969 12.578125 -6.796875 13.144531 -8.171875 C 13.914062 -10.070312 14.804688 -12.78125 16.140625 -17.027344 C 16.90625 -19.660156 17.839844 -22.652344 18.808594 -25.078125 C 21.679688 -25.847656 24.59375 -27.382812 24.59375 -29.285156 C 24.59375 -30.578125 23.621094 -31.46875 22.207031 -31.46875 C 20.144531 -31.46875 18.40625 -28.839844 17.515625 -26.496094 Z M 19.617188 -27.101562 C 20.265625 -28.476562 21.316406 -29.851562 22.207031 -29.851562 C 22.53125 -29.851562 22.773438 -29.609375 22.773438 -29.285156 C 22.773438 -28.636719 21.316406 -27.464844 19.617188 -27.101562 Z M 8.617188 -3.601562 C 7.523438 -2.347656 5.824219 -1.496094 4.207031 -1.496094 C 2.832031 -1.496094 1.699219 -2.101562 1.699219 -3.679688 C 1.78125 -5.378906 2.992188 -6.429688 4.410156 -6.429688 C 5.785156 -6.429688 7.320312 -5.460938 9.019531 -4.085938 C 8.859375 -3.921875 8.738281 -3.761719 8.617188 -3.601562 Z M 8.617188 -3.601562 "/></g></g></g><g fill="#ff66c4" fill-opacity="1"><g transform="translate(132.832918, 88.087389)"><g><path d="M 6.59375 -21.195312 C 7.363281 -21.195312 7.96875 -21.800781 7.96875 -22.570312 C 7.96875 -23.339844 7.363281 -23.945312 6.59375 -23.945312 C 5.824219 -23.945312 5.175781 -23.339844 5.175781 -22.570312 C 5.175781 -21.800781 5.824219 -21.195312 6.59375 -21.195312 Z M 9.261719 -9.628906 C 9.140625 -9.667969 9.0625 -9.707031 8.9375 -9.707031 C 8.617188 -9.707031 8.292969 -9.503906 8.128906 -9.183594 C 6.632812 -5.863281 4.773438 -1.699219 2.265625 -1.699219 C 1.414062 -1.699219 1.050781 -2.226562 1.050781 -3.398438 C 1.050781 -5.136719 1.78125 -6.996094 5.703125 -18.039062 C 5.945312 -18.726562 5.421875 -19.132812 4.894531 -19.132812 C 4.570312 -19.132812 4.246094 -18.929688 4.125 -18.566406 C 2.347656 -13.957031 -0.527344 -6.554688 -0.648438 -3.398438 C -0.726562 -1.535156 0.324219 0 2.265625 0 C 5.664062 0 7.765625 -4.125 9.707031 -8.496094 C 9.75 -8.617188 9.789062 -8.738281 9.789062 -8.859375 C 9.789062 -9.183594 9.585938 -9.503906 9.261719 -9.628906 Z M 9.261719 -9.628906 "/></g></g></g><g fill="#ff66c4" fill-opacity="1"><g transform="translate(140.274872, 88.087389)"><g><path d="M 13.347656 -7.160156 C 13.308594 -9.910156 12.214844 -11.324219 10.113281 -15.210938 C 11.367188 -16.625 12.378906 -18.40625 12.378906 -20.023438 C 12.296875 -21.195312 11.609375 -22.125 10.4375 -22.125 C 8.777344 -22.125 7.484375 -20.347656 7.484375 -18.242188 C 7.484375 -17.3125 7.726562 -16.421875 8.089844 -15.574219 C 7.605469 -15.085938 7.199219 -14.644531 6.714844 -14.078125 C 6.59375 -13.914062 6.511719 -13.710938 6.511719 -13.550781 C 6.511719 -13.308594 6.59375 -13.023438 6.796875 -12.863281 C 6.957031 -12.699219 7.199219 -12.660156 7.402344 -12.660156 C 7.644531 -12.660156 7.886719 -12.78125 8.050781 -12.984375 C 8.292969 -13.308594 8.574219 -13.632812 8.859375 -13.914062 C 11.003906 -10.152344 11.609375 -8.980469 11.648438 -7.199219 C 11.570312 -3.84375 9.222656 -1.699219 5.945312 -1.699219 C 3.601562 -1.699219 1.535156 -3.4375 1.535156 -5.90625 C 1.699219 -8.375 3.15625 -10.234375 5.378906 -10.234375 C 6.429688 -10.234375 7.441406 -9.222656 7.523438 -7.847656 C 7.523438 -7.363281 7.886719 -6.996094 8.375 -6.996094 C 8.859375 -6.996094 9.222656 -7.363281 9.222656 -7.847656 C 9.140625 -10.070312 7.441406 -11.933594 5.339844 -11.933594 C 2.101562 -11.933594 0.0820312 -9.546875 -0.160156 -5.90625 C -0.160156 -2.628906 2.589844 0 5.945312 0 C 10.03125 0 13.265625 -2.792969 13.347656 -7.160156 Z M 9.382812 -16.988281 C 9.261719 -17.433594 9.183594 -17.839844 9.183594 -18.285156 C 9.183594 -18.847656 9.304688 -19.578125 9.789062 -20.0625 C 10.191406 -20.46875 10.636719 -20.589844 10.636719 -20.023438 C 10.636719 -19.132812 10.03125 -17.878906 9.382812 -16.988281 Z M 9.382812 -16.988281 "/></g></g></g><g fill="#ff66c4" fill-opacity="1"><g transform="translate(155.846354, 88.087389)"><g><path d="M 13.347656 -7.160156 C 13.308594 -9.910156 12.214844 -11.324219 10.113281 -15.210938 C 11.367188 -16.625 12.378906 -18.40625 12.378906 -20.023438 C 12.296875 -21.195312 11.609375 -22.125 10.4375 -22.125 C 8.777344 -22.125 7.484375 -20.347656 7.484375 -18.242188 C 7.484375 -17.3125 7.726562 -16.421875 8.089844 -15.574219 C 7.605469 -15.085938 7.199219 -14.644531 6.714844 -14.078125 C 6.59375 -13.914062 6.511719 -13.710938 6.511719 -13.550781 C 6.511719 -13.308594 6.59375 -13.023438 6.796875 -12.863281 C 6.957031 -12.699219 7.199219 -12.660156 7.402344 -12.660156 C 7.644531 -12.660156 7.886719 -12.78125 8.050781 -12.984375 C 8.292969 -13.308594 8.574219 -13.632812 8.859375 -13.914062 C 11.003906 -10.152344 11.609375 -8.980469 11.648438 -7.199219 C 11.570312 -3.84375 9.222656 -1.699219 5.945312 -1.699219 C 3.601562 -1.699219 1.535156 -3.4375 1.535156 -5.90625 C 1.699219 -8.375 3.15625 -10.234375 5.378906 -10.234375 C 6.429688 -10.234375 7.441406 -9.222656 7.523438 -7.847656 C 7.523438 -7.363281 7.886719 -6.996094 8.375 -6.996094 C 8.859375 -6.996094 9.222656 -7.363281 9.222656 -7.847656 C 9.140625 -10.070312 7.441406 -11.933594 5.339844 -11.933594 C 2.101562 -11.933594 0.0820312 -9.546875 -0.160156 -5.90625 C -0.160156 -2.628906 2.589844 0 5.945312 0 C 10.03125 0 13.265625 -2.792969 13.347656 -7.160156 Z M 9.382812 -16.988281 C 9.261719 -17.433594 9.183594 -17.839844 9.183594 -18.285156 C 9.183594 -18.847656 9.304688 -19.578125 9.789062 -20.0625 C 10.191406 -20.46875 10.636719 -20.589844 10.636719 -20.023438 C 10.636719 -19.132812 10.03125 -17.878906 9.382812 -16.988281 Z M 9.382812 -16.988281 "/></g></g></g><g fill="#ff66c4" fill-opacity="1"><g transform="translate(171.417836, 88.087389)"><g><path d="M 18.121094 -9.628906 C 18 -9.667969 17.878906 -9.707031 17.757812 -9.707031 C 17.433594 -9.707031 17.152344 -9.503906 16.988281 -9.183594 L 16.949219 -9.0625 C 15.613281 -6.066406 13.671875 -1.699219 11.164062 -1.699219 C 10.316406 -1.699219 9.949219 -2.183594 9.949219 -3.398438 C 9.949219 -5.175781 11.285156 -8.695312 12.742188 -12.78125 L 14.765625 -18.203125 C 14.964844 -18.6875 14.644531 -19.335938 13.996094 -19.335938 C 13.632812 -19.335938 13.308594 -19.132812 13.1875 -18.808594 C 12.984375 -18.285156 12.742188 -17.675781 12.5 -16.988281 C 11.769531 -18.445312 10.515625 -19.132812 8.816406 -19.132812 C 3.964844 -19.132812 -0.121094 -9.667969 -0.121094 -4.367188 C -0.121094 -1.941406 0.929688 0 3.195312 0 C 4.933594 0 6.632812 -1.132812 8.25 -3.398438 C 8.25 -1.414062 9.222656 0 11.164062 0 C 14.804688 0 16.988281 -4.976562 18.527344 -8.375 L 18.566406 -8.496094 C 18.605469 -8.617188 18.648438 -8.738281 18.648438 -8.859375 C 18.648438 -9.183594 18.445312 -9.464844 18.121094 -9.628906 Z M 3.15625 -1.699219 C 1.941406 -1.699219 1.578125 -2.871094 1.578125 -4.652344 C 1.660156 -8.65625 5.097656 -17.351562 8.816406 -17.433594 C 10.273438 -17.433594 11.324219 -16.339844 11.40625 -14.480469 L 10.4375 -11.890625 C 8.816406 -7.765625 6.429688 -1.699219 3.15625 -1.699219 Z M 3.15625 -1.699219 "/></g></g></g></svg>